<mxfile host="app.diagrams.net" modified="2024-05-23T07:18:03.292Z" agent="Mozilla/5.0 (Windows NT 10.0; Win64; x64) AppleWebKit/537.36 (KHTML, like Gecko) Chrome/125.0.0.0 Safari/537.36" etag="CYcBiUCRCHmhL2P-S6iT" version="24.4.6" type="device">
  <diagram name="Страница — 1" id="lLJkRPgDvFg0Q_lKaMGv">
    <mxGraphModel dx="10387" dy="6369" grid="1" gridSize="10" guides="1" tooltips="1" connect="1" arrows="1" fold="1" page="1" pageScale="1" pageWidth="827" pageHeight="1169" math="0" shadow="0">
      <root>
        <mxCell id="0" />
        <mxCell id="1" parent="0" />
        <mxCell id="EvJwnLXetme0oPZWd-gJ-12" value="й" style="rounded=0;orthogonalLoop=1;jettySize=auto;html=1;startArrow=none;startFill=0;endArrow=none;endFill=0;entryX=-0.019;entryY=0.416;entryDx=0;entryDy=0;entryPerimeter=0;" parent="1" edge="1">
          <mxGeometry relative="1" as="geometry">
            <mxPoint x="329.99999999999994" y="-329.99999999999994" as="targetPoint" />
            <mxPoint x="102.66" y="-329.17446892795243" as="sourcePoint" />
            <Array as="points">
              <mxPoint x="220" y="-329.59" />
            </Array>
          </mxGeometry>
        </mxCell>
        <mxCell id="EvJwnLXetme0oPZWd-gJ-26" style="rounded=0;orthogonalLoop=1;jettySize=auto;html=1;entryX=0.5;entryY=1;entryDx=0;entryDy=0;endArrow=none;endFill=0;" parent="1" source="EvJwnLXetme0oPZWd-gJ-1" target="EvJwnLXetme0oPZWd-gJ-25" edge="1">
          <mxGeometry relative="1" as="geometry" />
        </mxCell>
        <mxCell id="EvJwnLXetme0oPZWd-gJ-39" style="rounded=0;orthogonalLoop=1;jettySize=auto;html=1;entryX=1;entryY=0.5;entryDx=0;entryDy=0;endArrow=none;endFill=0;" parent="1" source="EvJwnLXetme0oPZWd-gJ-1" target="EvJwnLXetme0oPZWd-gJ-38" edge="1">
          <mxGeometry relative="1" as="geometry" />
        </mxCell>
        <mxCell id="EvJwnLXetme0oPZWd-gJ-1" value="Преподаватель" style="shape=umlActor;verticalLabelPosition=bottom;verticalAlign=top;html=1;" parent="1" vertex="1">
          <mxGeometry x="70" y="-360" width="30" height="60" as="geometry" />
        </mxCell>
        <mxCell id="EvJwnLXetme0oPZWd-gJ-5" value="&lt;font style=&quot;font-size: 26px;&quot;&gt;&lt;b&gt;Use-case diagramm(school)&lt;/b&gt;&lt;/font&gt;" style="text;html=1;align=center;verticalAlign=middle;whiteSpace=wrap;rounded=0;" parent="1" vertex="1">
          <mxGeometry x="-800" y="-1169" width="410" height="30" as="geometry" />
        </mxCell>
        <mxCell id="EvJwnLXetme0oPZWd-gJ-6" value="Выставлять оценки" style="ellipse;whiteSpace=wrap;html=1;" parent="1" vertex="1">
          <mxGeometry x="329" y="-365" width="140" height="70" as="geometry" />
        </mxCell>
        <mxCell id="EvJwnLXetme0oPZWd-gJ-11" value="" style="shape=image;verticalLabelPosition=bottom;labelBackgroundColor=default;verticalAlign=top;aspect=fixed;imageAspect=0;image=https://upload.wikimedia.org/wikipedia/commons/thumb/7/77/Uml_classes_ru.svg/351px-Uml_classes_ru.svg.png;" parent="1" vertex="1">
          <mxGeometry x="1290" y="-1160" width="351" height="234" as="geometry" />
        </mxCell>
        <mxCell id="EvJwnLXetme0oPZWd-gJ-13" value="Ассоциативная связь(препод может выставлять оценки)&lt;div&gt;&lt;br&gt;&lt;/div&gt;" style="text;html=1;align=center;verticalAlign=middle;whiteSpace=wrap;rounded=0;" parent="1" vertex="1">
          <mxGeometry x="150" y="-330" width="170" height="40" as="geometry" />
        </mxCell>
        <mxCell id="EvJwnLXetme0oPZWd-gJ-42" style="edgeStyle=orthogonalEdgeStyle;rounded=0;orthogonalLoop=1;jettySize=auto;html=1;endArrow=block;endFill=0;" parent="1" source="EvJwnLXetme0oPZWd-gJ-14" target="EvJwnLXetme0oPZWd-gJ-1" edge="1">
          <mxGeometry relative="1" as="geometry" />
        </mxCell>
        <mxCell id="EvJwnLXetme0oPZWd-gJ-44" style="rounded=0;orthogonalLoop=1;jettySize=auto;html=1;entryX=0;entryY=0.5;entryDx=0;entryDy=0;endArrow=none;endFill=0;" parent="1" source="EvJwnLXetme0oPZWd-gJ-14" target="EvJwnLXetme0oPZWd-gJ-28" edge="1">
          <mxGeometry relative="1" as="geometry" />
        </mxCell>
        <mxCell id="EvJwnLXetme0oPZWd-gJ-14" value="Классный руководитель" style="shape=umlActor;verticalLabelPosition=bottom;verticalAlign=top;html=1;outlineConnect=0;" parent="1" vertex="1">
          <mxGeometry x="70" y="-170" width="30" height="60" as="geometry" />
        </mxCell>
        <mxCell id="EvJwnLXetme0oPZWd-gJ-21" style="edgeStyle=orthogonalEdgeStyle;rounded=0;orthogonalLoop=1;jettySize=auto;html=1;endArrow=none;endFill=0;" parent="1" source="EvJwnLXetme0oPZWd-gJ-19" target="EvJwnLXetme0oPZWd-gJ-20" edge="1">
          <mxGeometry relative="1" as="geometry" />
        </mxCell>
        <mxCell id="EvJwnLXetme0oPZWd-gJ-23" style="rounded=0;orthogonalLoop=1;jettySize=auto;html=1;endArrow=none;endFill=0;entryX=0;entryY=0.5;entryDx=0;entryDy=0;" parent="1" source="EvJwnLXetme0oPZWd-gJ-19" target="EvJwnLXetme0oPZWd-gJ-22" edge="1">
          <mxGeometry relative="1" as="geometry">
            <mxPoint x="250" y="205" as="targetPoint" />
          </mxGeometry>
        </mxCell>
        <mxCell id="EvJwnLXetme0oPZWd-gJ-36" style="rounded=0;orthogonalLoop=1;jettySize=auto;html=1;entryX=0.5;entryY=1;entryDx=0;entryDy=0;endArrow=none;endFill=0;" parent="1" source="EvJwnLXetme0oPZWd-gJ-19" target="EvJwnLXetme0oPZWd-gJ-35" edge="1">
          <mxGeometry relative="1" as="geometry" />
        </mxCell>
        <mxCell id="EvJwnLXetme0oPZWd-gJ-19" value="Ученик" style="shape=umlActor;verticalLabelPosition=bottom;verticalAlign=top;html=1;outlineConnect=0;" parent="1" vertex="1">
          <mxGeometry x="70" y="55" width="30" height="60" as="geometry" />
        </mxCell>
        <mxCell id="EvJwnLXetme0oPZWd-gJ-20" value="Узнать оценки" style="ellipse;whiteSpace=wrap;html=1;" parent="1" vertex="1">
          <mxGeometry x="329" y="50" width="140" height="70" as="geometry" />
        </mxCell>
        <mxCell id="EvJwnLXetme0oPZWd-gJ-22" value="Узнать расписание" style="ellipse;whiteSpace=wrap;html=1;" parent="1" vertex="1">
          <mxGeometry x="329" y="210" width="140" height="70" as="geometry" />
        </mxCell>
        <mxCell id="EvJwnLXetme0oPZWd-gJ-25" value="Разместить учебные материалы" style="ellipse;whiteSpace=wrap;html=1;" parent="1" vertex="1">
          <mxGeometry x="329" y="-500" width="140" height="70" as="geometry" />
        </mxCell>
        <mxCell id="EvJwnLXetme0oPZWd-gJ-28" value="Организовать родительское собрание" style="ellipse;whiteSpace=wrap;html=1;" parent="1" vertex="1">
          <mxGeometry x="329" y="-155" width="140" height="70" as="geometry" />
        </mxCell>
        <mxCell id="EvJwnLXetme0oPZWd-gJ-32" style="rounded=0;orthogonalLoop=1;jettySize=auto;html=1;entryX=0;entryY=0.5;entryDx=0;entryDy=0;endArrow=none;endFill=0;" parent="1" source="EvJwnLXetme0oPZWd-gJ-30" target="EvJwnLXetme0oPZWd-gJ-31" edge="1">
          <mxGeometry relative="1" as="geometry" />
        </mxCell>
        <mxCell id="EvJwnLXetme0oPZWd-gJ-34" style="rounded=0;orthogonalLoop=1;jettySize=auto;html=1;entryX=0;entryY=0.5;entryDx=0;entryDy=0;endArrow=none;endFill=0;" parent="1" source="EvJwnLXetme0oPZWd-gJ-30" target="EvJwnLXetme0oPZWd-gJ-33" edge="1">
          <mxGeometry relative="1" as="geometry" />
        </mxCell>
        <mxCell id="EvJwnLXetme0oPZWd-gJ-37" style="rounded=0;orthogonalLoop=1;jettySize=auto;html=1;endArrow=none;endFill=0;" parent="1" source="EvJwnLXetme0oPZWd-gJ-30" target="EvJwnLXetme0oPZWd-gJ-35" edge="1">
          <mxGeometry relative="1" as="geometry" />
        </mxCell>
        <mxCell id="EvJwnLXetme0oPZWd-gJ-30" value="Зам. директора&amp;nbsp;" style="shape=umlActor;verticalLabelPosition=bottom;verticalAlign=top;html=1;" parent="1" vertex="1">
          <mxGeometry x="60" y="-840" width="30" height="60" as="geometry" />
        </mxCell>
        <mxCell id="EvJwnLXetme0oPZWd-gJ-60" style="rounded=0;orthogonalLoop=1;jettySize=auto;html=1;entryX=0;entryY=0.5;entryDx=0;entryDy=0;dashed=1;" parent="1" source="EvJwnLXetme0oPZWd-gJ-31" target="EvJwnLXetme0oPZWd-gJ-53" edge="1">
          <mxGeometry relative="1" as="geometry" />
        </mxCell>
        <mxCell id="EvJwnLXetme0oPZWd-gJ-61" style="rounded=0;orthogonalLoop=1;jettySize=auto;html=1;dashed=1;" parent="1" source="EvJwnLXetme0oPZWd-gJ-31" target="EvJwnLXetme0oPZWd-gJ-50" edge="1">
          <mxGeometry relative="1" as="geometry" />
        </mxCell>
        <mxCell id="EvJwnLXetme0oPZWd-gJ-62" style="rounded=0;orthogonalLoop=1;jettySize=auto;html=1;dashed=1;" parent="1" source="EvJwnLXetme0oPZWd-gJ-31" target="EvJwnLXetme0oPZWd-gJ-52" edge="1">
          <mxGeometry relative="1" as="geometry" />
        </mxCell>
        <mxCell id="EvJwnLXetme0oPZWd-gJ-31" value="Составить расписание" style="ellipse;whiteSpace=wrap;html=1;" parent="1" vertex="1">
          <mxGeometry x="340" y="-930" width="140" height="70" as="geometry" />
        </mxCell>
        <mxCell id="EvJwnLXetme0oPZWd-gJ-33" value="Опубликовать пост с информацией&amp;nbsp;" style="ellipse;whiteSpace=wrap;html=1;" parent="1" vertex="1">
          <mxGeometry x="340" y="-780" width="140" height="70" as="geometry" />
        </mxCell>
        <mxCell id="EvJwnLXetme0oPZWd-gJ-35" value="Оставлять комментарии к постам" style="ellipse;whiteSpace=wrap;html=1;" parent="1" vertex="1">
          <mxGeometry x="800" y="-350" width="140" height="70" as="geometry" />
        </mxCell>
        <mxCell id="EvJwnLXetme0oPZWd-gJ-38" value="Оставлять комментарии к постам" style="ellipse;whiteSpace=wrap;html=1;" parent="1" vertex="1">
          <mxGeometry x="-330" y="-320" width="140" height="70" as="geometry" />
        </mxCell>
        <mxCell id="EvJwnLXetme0oPZWd-gJ-43" value="Обобщение - обобщение некоторых действий&amp;nbsp;&lt;div&gt;&lt;br&gt;&lt;/div&gt;" style="text;html=1;align=center;verticalAlign=middle;whiteSpace=wrap;rounded=0;" parent="1" vertex="1">
          <mxGeometry x="-20" y="-260" width="100" height="90" as="geometry" />
        </mxCell>
        <mxCell id="EvJwnLXetme0oPZWd-gJ-45" value="Узнать среднею оценку за период времени" style="ellipse;whiteSpace=wrap;html=1;" parent="1" vertex="1">
          <mxGeometry x="530" y="-80" width="140" height="70" as="geometry" />
        </mxCell>
        <mxCell id="EvJwnLXetme0oPZWd-gJ-48" style="rounded=0;orthogonalLoop=1;jettySize=auto;html=1;entryX=0.5;entryY=1;entryDx=0;entryDy=0;endArrow=blockThin;endFill=0;" parent="1" source="EvJwnLXetme0oPZWd-gJ-46" target="EvJwnLXetme0oPZWd-gJ-20" edge="1">
          <mxGeometry relative="1" as="geometry" />
        </mxCell>
        <mxCell id="EvJwnLXetme0oPZWd-gJ-46" value="Узнать среднюю оценку по предмету" style="ellipse;whiteSpace=wrap;html=1;" parent="1" vertex="1">
          <mxGeometry x="530" y="160" width="140" height="70" as="geometry" />
        </mxCell>
        <mxCell id="EvJwnLXetme0oPZWd-gJ-49" style="rounded=0;orthogonalLoop=1;jettySize=auto;html=1;entryX=0.452;entryY=-0.026;entryDx=0;entryDy=0;entryPerimeter=0;endArrow=block;endFill=0;" parent="1" source="EvJwnLXetme0oPZWd-gJ-45" target="EvJwnLXetme0oPZWd-gJ-20" edge="1">
          <mxGeometry relative="1" as="geometry" />
        </mxCell>
        <mxCell id="EvJwnLXetme0oPZWd-gJ-50" value="Расписание каникул" style="ellipse;whiteSpace=wrap;html=1;" parent="1" vertex="1">
          <mxGeometry x="680" y="-1120" width="140" height="70" as="geometry" />
        </mxCell>
        <mxCell id="EvJwnLXetme0oPZWd-gJ-52" value="Расписание занятий" style="ellipse;whiteSpace=wrap;html=1;" parent="1" vertex="1">
          <mxGeometry x="680" y="-750" width="140" height="70" as="geometry" />
        </mxCell>
        <mxCell id="EvJwnLXetme0oPZWd-gJ-53" value="Расписание мероприятий" style="ellipse;whiteSpace=wrap;html=1;" parent="1" vertex="1">
          <mxGeometry x="680" y="-930" width="140" height="70" as="geometry" />
        </mxCell>
        <mxCell id="EvJwnLXetme0oPZWd-gJ-54" value="Связь-включение - Обозначает обязательное использование одного прецедента в другом" style="text;html=1;align=center;verticalAlign=middle;whiteSpace=wrap;rounded=0;" parent="1" vertex="1">
          <mxGeometry x="480" y="-890" width="210" height="30" as="geometry" />
        </mxCell>
        <mxCell id="EvJwnLXetme0oPZWd-gJ-59" value="Связь - Обобщение - обобщение некоторых действий&amp;nbsp;&lt;div&gt;(обязательно выбрать один из вариантов)&lt;/div&gt;" style="text;html=1;align=center;verticalAlign=middle;whiteSpace=wrap;rounded=0;" parent="1" vertex="1">
          <mxGeometry x="480" y="40" width="170" height="90" as="geometry" />
        </mxCell>
        <mxCell id="EvJwnLXetme0oPZWd-gJ-63" value="&quot;Include&quot;" style="text;html=1;align=center;verticalAlign=middle;whiteSpace=wrap;rounded=0;rotation=-30;" parent="1" vertex="1">
          <mxGeometry x="530" y="-1020" width="60" height="30" as="geometry" />
        </mxCell>
        <mxCell id="EvJwnLXetme0oPZWd-gJ-64" value="&quot;Include&quot;" style="text;html=1;align=center;verticalAlign=middle;whiteSpace=wrap;rounded=0;rotation=0;" parent="1" vertex="1">
          <mxGeometry x="550" y="-930" width="60" height="30" as="geometry" />
        </mxCell>
        <mxCell id="EvJwnLXetme0oPZWd-gJ-65" value="&quot;Include&quot;" style="text;html=1;align=center;verticalAlign=middle;whiteSpace=wrap;rounded=0;rotation=30;" parent="1" vertex="1">
          <mxGeometry x="520" y="-810" width="60" height="20" as="geometry" />
        </mxCell>
        <mxCell id="EvJwnLXetme0oPZWd-gJ-70" style="edgeStyle=orthogonalEdgeStyle;rounded=0;orthogonalLoop=1;jettySize=auto;html=1;entryX=1;entryY=0.5;entryDx=0;entryDy=0;dashed=1;" parent="1" source="EvJwnLXetme0oPZWd-gJ-69" target="EvJwnLXetme0oPZWd-gJ-35" edge="1">
          <mxGeometry relative="1" as="geometry" />
        </mxCell>
        <mxCell id="EvJwnLXetme0oPZWd-gJ-69" value="Прикрепление файла к комментарию" style="ellipse;whiteSpace=wrap;html=1;" parent="1" vertex="1">
          <mxGeometry x="1160" y="-350" width="140" height="70" as="geometry" />
        </mxCell>
        <mxCell id="EvJwnLXetme0oPZWd-gJ-71" value="&quot;Extend&quot;" style="text;align=center;fontStyle=1;verticalAlign=middle;spacingLeft=3;spacingRight=3;strokeColor=none;rotatable=0;points=[[0,0.5],[1,0.5]];portConstraint=eastwest;html=1;" parent="1" vertex="1">
          <mxGeometry x="1020" y="-343" width="80" height="26" as="geometry" />
        </mxCell>
        <mxCell id="EvJwnLXetme0oPZWd-gJ-72" value="Связь-расширение - показывает&amp;nbsp;&lt;div&gt;дополнительное поведение,&amp;nbsp;&lt;div&gt;которое может&amp;nbsp;&amp;nbsp;&lt;span style=&quot;background-color: initial;&quot;&gt;быть добавлено&amp;nbsp;&lt;/span&gt;&lt;/div&gt;&lt;div&gt;&lt;span style=&quot;background-color: initial;&quot;&gt;к основному прецеденту,&amp;nbsp;&lt;/span&gt;&lt;/div&gt;&lt;div&gt;&lt;span style=&quot;background-color: initial;&quot;&gt;при выполнении определенного условия&lt;/span&gt;&lt;/div&gt;&lt;/div&gt;&lt;div&gt;&lt;span style=&quot;background-color: initial;&quot;&gt;(Можно не выбирать)&lt;/span&gt;&lt;/div&gt;" style="text;html=1;align=center;verticalAlign=middle;resizable=0;points=[];autosize=1;strokeColor=none;fillColor=none;" parent="1" vertex="1">
          <mxGeometry x="935" y="-322" width="250" height="100" as="geometry" />
        </mxCell>
        <mxCell id="EvJwnLXetme0oPZWd-gJ-86" style="rounded=0;orthogonalLoop=1;jettySize=auto;html=1;endArrow=none;endFill=0;" parent="1" source="EvJwnLXetme0oPZWd-gJ-79" target="EvJwnLXetme0oPZWd-gJ-82" edge="1">
          <mxGeometry relative="1" as="geometry" />
        </mxCell>
        <mxCell id="EvJwnLXetme0oPZWd-gJ-88" style="edgeStyle=none;rounded=0;orthogonalLoop=1;jettySize=auto;html=1;endArrow=none;endFill=0;" parent="1" source="EvJwnLXetme0oPZWd-gJ-79" target="EvJwnLXetme0oPZWd-gJ-87" edge="1">
          <mxGeometry relative="1" as="geometry" />
        </mxCell>
        <mxCell id="EvJwnLXetme0oPZWd-gJ-109" style="edgeStyle=none;rounded=0;orthogonalLoop=1;jettySize=auto;html=1;endArrow=none;endFill=0;" parent="1" source="EvJwnLXetme0oPZWd-gJ-79" target="EvJwnLXetme0oPZWd-gJ-108" edge="1">
          <mxGeometry relative="1" as="geometry" />
        </mxCell>
        <mxCell id="EvJwnLXetme0oPZWd-gJ-132" style="edgeStyle=orthogonalEdgeStyle;rounded=0;orthogonalLoop=1;jettySize=auto;html=1;entryX=0.5;entryY=1;entryDx=0;entryDy=0;endArrow=none;endFill=0;" parent="1" source="EvJwnLXetme0oPZWd-gJ-79" target="EvJwnLXetme0oPZWd-gJ-131" edge="1">
          <mxGeometry relative="1" as="geometry" />
        </mxCell>
        <mxCell id="EvJwnLXetme0oPZWd-gJ-79" value="Читатель" style="shape=umlActor;verticalLabelPosition=bottom;verticalAlign=top;html=1;" parent="1" vertex="1">
          <mxGeometry x="504" y="1130" width="30" height="60" as="geometry" />
        </mxCell>
        <mxCell id="EvJwnLXetme0oPZWd-gJ-83" style="rounded=0;orthogonalLoop=1;jettySize=auto;html=1;entryX=0;entryY=0.5;entryDx=0;entryDy=0;endArrow=none;endFill=0;" parent="1" target="EvJwnLXetme0oPZWd-gJ-82" edge="1">
          <mxGeometry relative="1" as="geometry">
            <mxPoint x="534" y="1315" as="sourcePoint" />
          </mxGeometry>
        </mxCell>
        <mxCell id="EvJwnLXetme0oPZWd-gJ-91" style="edgeStyle=none;rounded=0;orthogonalLoop=1;jettySize=auto;html=1;entryX=0.5;entryY=0;entryDx=0;entryDy=0;endArrow=none;endFill=0;" parent="1" source="EvJwnLXetme0oPZWd-gJ-80" target="EvJwnLXetme0oPZWd-gJ-90" edge="1">
          <mxGeometry relative="1" as="geometry" />
        </mxCell>
        <mxCell id="EvJwnLXetme0oPZWd-gJ-94" style="edgeStyle=none;rounded=0;orthogonalLoop=1;jettySize=auto;html=1;entryX=0.5;entryY=0;entryDx=0;entryDy=0;endArrow=none;endFill=0;" parent="1" source="EvJwnLXetme0oPZWd-gJ-80" target="EvJwnLXetme0oPZWd-gJ-93" edge="1">
          <mxGeometry relative="1" as="geometry" />
        </mxCell>
        <mxCell id="EvJwnLXetme0oPZWd-gJ-80" value="Библиотекарь" style="shape=umlActor;verticalLabelPosition=bottom;verticalAlign=top;html=1;" parent="1" vertex="1">
          <mxGeometry x="504" y="1280" width="30" height="60" as="geometry" />
        </mxCell>
        <mxCell id="EvJwnLXetme0oPZWd-gJ-82" value="Поиск книги в библиотеке" style="ellipse;whiteSpace=wrap;html=1;" parent="1" vertex="1">
          <mxGeometry x="804" y="1280" width="140" height="70" as="geometry" />
        </mxCell>
        <mxCell id="EvJwnLXetme0oPZWd-gJ-100" style="edgeStyle=none;rounded=0;orthogonalLoop=1;jettySize=auto;html=1;entryX=0;entryY=0.5;entryDx=0;entryDy=0;dashed=1;" parent="1" source="EvJwnLXetme0oPZWd-gJ-84" target="EvJwnLXetme0oPZWd-gJ-99" edge="1">
          <mxGeometry relative="1" as="geometry" />
        </mxCell>
        <mxCell id="EvJwnLXetme0oPZWd-gJ-84" value="Выдача книги" style="ellipse;whiteSpace=wrap;html=1;" parent="1" vertex="1">
          <mxGeometry x="804" y="1400" width="140" height="70" as="geometry" />
        </mxCell>
        <mxCell id="EvJwnLXetme0oPZWd-gJ-85" style="rounded=0;orthogonalLoop=1;jettySize=auto;html=1;entryX=0;entryY=0.571;entryDx=0;entryDy=0;entryPerimeter=0;endArrow=none;endFill=0;" parent="1" source="EvJwnLXetme0oPZWd-gJ-80" target="EvJwnLXetme0oPZWd-gJ-84" edge="1">
          <mxGeometry relative="1" as="geometry" />
        </mxCell>
        <mxCell id="EvJwnLXetme0oPZWd-gJ-87" value="Возврат книги" style="ellipse;whiteSpace=wrap;html=1;" parent="1" vertex="1">
          <mxGeometry x="804" y="1120" width="140" height="70" as="geometry" />
        </mxCell>
        <mxCell id="EvJwnLXetme0oPZWd-gJ-90" value="Брать оплату&amp;nbsp;" style="ellipse;whiteSpace=wrap;html=1;" parent="1" vertex="1">
          <mxGeometry x="449" y="1499" width="140" height="70" as="geometry" />
        </mxCell>
        <mxCell id="EvJwnLXetme0oPZWd-gJ-93" value="Разложить книги" style="ellipse;whiteSpace=wrap;html=1;" parent="1" vertex="1">
          <mxGeometry x="695" y="1540" width="140" height="70" as="geometry" />
        </mxCell>
        <mxCell id="EvJwnLXetme0oPZWd-gJ-99" value="Проверить наличие" style="ellipse;whiteSpace=wrap;html=1;" parent="1" vertex="1">
          <mxGeometry x="1104" y="1400" width="140" height="70" as="geometry" />
        </mxCell>
        <mxCell id="EvJwnLXetme0oPZWd-gJ-101" value="&quot;include&quot;" style="text;html=1;align=center;verticalAlign=middle;whiteSpace=wrap;rounded=0;" parent="1" vertex="1">
          <mxGeometry x="994" y="1410" width="60" height="30" as="geometry" />
        </mxCell>
        <mxCell id="EvJwnLXetme0oPZWd-gJ-104" style="edgeStyle=none;rounded=0;orthogonalLoop=1;jettySize=auto;html=1;endArrow=block;endFill=0;" parent="1" source="EvJwnLXetme0oPZWd-gJ-102" target="EvJwnLXetme0oPZWd-gJ-90" edge="1">
          <mxGeometry relative="1" as="geometry" />
        </mxCell>
        <mxCell id="EvJwnLXetme0oPZWd-gJ-102" value="Взять оплату за просрочку сдачи книги" style="ellipse;whiteSpace=wrap;html=1;" parent="1" vertex="1">
          <mxGeometry x="304" y="1700" width="140" height="70" as="geometry" />
        </mxCell>
        <mxCell id="EvJwnLXetme0oPZWd-gJ-103" value="Взять оплату за утерю" style="ellipse;whiteSpace=wrap;html=1;" parent="1" vertex="1">
          <mxGeometry x="589" y="1700" width="140" height="70" as="geometry" />
        </mxCell>
        <mxCell id="EvJwnLXetme0oPZWd-gJ-105" style="edgeStyle=none;rounded=0;orthogonalLoop=1;jettySize=auto;html=1;entryX=0.761;entryY=0.929;entryDx=0;entryDy=0;entryPerimeter=0;endArrow=block;endFill=0;" parent="1" source="EvJwnLXetme0oPZWd-gJ-103" target="EvJwnLXetme0oPZWd-gJ-90" edge="1">
          <mxGeometry relative="1" as="geometry" />
        </mxCell>
        <mxCell id="EvJwnLXetme0oPZWd-gJ-108" value="Заплатить штраф" style="ellipse;whiteSpace=wrap;html=1;" parent="1" vertex="1">
          <mxGeometry x="804" y="950" width="140" height="70" as="geometry" />
        </mxCell>
        <mxCell id="EvJwnLXetme0oPZWd-gJ-111" style="edgeStyle=none;rounded=0;orthogonalLoop=1;jettySize=auto;html=1;endArrow=none;endFill=0;" parent="1" source="EvJwnLXetme0oPZWd-gJ-110" target="EvJwnLXetme0oPZWd-gJ-90" edge="1">
          <mxGeometry relative="1" as="geometry" />
        </mxCell>
        <mxCell id="EvJwnLXetme0oPZWd-gJ-117" style="edgeStyle=none;rounded=0;orthogonalLoop=1;jettySize=auto;html=1;endArrow=none;endFill=0;" parent="1" source="EvJwnLXetme0oPZWd-gJ-110" target="EvJwnLXetme0oPZWd-gJ-114" edge="1">
          <mxGeometry relative="1" as="geometry" />
        </mxCell>
        <mxCell id="EvJwnLXetme0oPZWd-gJ-123" style="edgeStyle=none;rounded=0;orthogonalLoop=1;jettySize=auto;html=1;entryX=1;entryY=0.5;entryDx=0;entryDy=0;endArrow=none;endFill=0;" parent="1" source="EvJwnLXetme0oPZWd-gJ-110" target="EvJwnLXetme0oPZWd-gJ-122" edge="1">
          <mxGeometry relative="1" as="geometry" />
        </mxCell>
        <mxCell id="EvJwnLXetme0oPZWd-gJ-110" value="Админ библиотеки" style="shape=umlActor;verticalLabelPosition=bottom;verticalAlign=top;html=1;" parent="1" vertex="1">
          <mxGeometry x="34" y="1280" width="30" height="60" as="geometry" />
        </mxCell>
        <mxCell id="EvJwnLXetme0oPZWd-gJ-118" style="edgeStyle=none;rounded=0;orthogonalLoop=1;jettySize=auto;html=1;entryX=0;entryY=1;entryDx=0;entryDy=0;endArrow=block;endFill=0;" parent="1" source="EvJwnLXetme0oPZWd-gJ-112" target="EvJwnLXetme0oPZWd-gJ-114" edge="1">
          <mxGeometry relative="1" as="geometry" />
        </mxCell>
        <mxCell id="EvJwnLXetme0oPZWd-gJ-112" value="Внести информацию о пользователе" style="ellipse;whiteSpace=wrap;html=1;" parent="1" vertex="1">
          <mxGeometry x="-166" y="1700" width="140" height="70" as="geometry" />
        </mxCell>
        <mxCell id="EvJwnLXetme0oPZWd-gJ-119" style="edgeStyle=none;rounded=0;orthogonalLoop=1;jettySize=auto;html=1;entryX=1;entryY=1;entryDx=0;entryDy=0;endArrow=block;endFill=0;" parent="1" source="EvJwnLXetme0oPZWd-gJ-113" target="EvJwnLXetme0oPZWd-gJ-114" edge="1">
          <mxGeometry relative="1" as="geometry" />
        </mxCell>
        <mxCell id="EvJwnLXetme0oPZWd-gJ-113" value="Внести информацию о книге" style="ellipse;whiteSpace=wrap;html=1;" parent="1" vertex="1">
          <mxGeometry x="120" y="1700" width="140" height="70" as="geometry" />
        </mxCell>
        <mxCell id="EvJwnLXetme0oPZWd-gJ-114" value="Внести информацию в систему" style="ellipse;whiteSpace=wrap;html=1;" parent="1" vertex="1">
          <mxGeometry x="-26" y="1521" width="140" height="70" as="geometry" />
        </mxCell>
        <mxCell id="EvJwnLXetme0oPZWd-gJ-126" style="edgeStyle=none;rounded=0;orthogonalLoop=1;jettySize=auto;html=1;entryX=1;entryY=0.5;entryDx=0;entryDy=0;dashed=1;" parent="1" source="EvJwnLXetme0oPZWd-gJ-122" target="EvJwnLXetme0oPZWd-gJ-124" edge="1">
          <mxGeometry relative="1" as="geometry" />
        </mxCell>
        <mxCell id="EvJwnLXetme0oPZWd-gJ-122" value="Искать книгу в системе" style="ellipse;whiteSpace=wrap;html=1;" parent="1" vertex="1">
          <mxGeometry x="-166" y="1275" width="140" height="70" as="geometry" />
        </mxCell>
        <mxCell id="EvJwnLXetme0oPZWd-gJ-124" value="Ввести название книги в систему" style="ellipse;whiteSpace=wrap;html=1;" parent="1" vertex="1">
          <mxGeometry x="-416" y="1275" width="140" height="70" as="geometry" />
        </mxCell>
        <mxCell id="EvJwnLXetme0oPZWd-gJ-127" value="&quot;include&quot;" style="text;html=1;align=center;verticalAlign=middle;whiteSpace=wrap;rounded=0;" parent="1" vertex="1">
          <mxGeometry x="-246" y="1280" width="60" height="30" as="geometry" />
        </mxCell>
        <mxCell id="EvJwnLXetme0oPZWd-gJ-128" value="&lt;font style=&quot;font-size: 26px;&quot;&gt;&lt;b&gt;Use-case diagramm (library)&lt;/b&gt;&lt;/font&gt;" style="text;html=1;align=center;verticalAlign=middle;whiteSpace=wrap;rounded=0;" parent="1" vertex="1">
          <mxGeometry x="-820" y="770" width="390" height="30" as="geometry" />
        </mxCell>
        <mxCell id="EvJwnLXetme0oPZWd-gJ-135" style="rounded=0;orthogonalLoop=1;jettySize=auto;html=1;entryX=1;entryY=0.5;entryDx=0;entryDy=0;dashed=1;" parent="1" source="EvJwnLXetme0oPZWd-gJ-131" target="EvJwnLXetme0oPZWd-gJ-133" edge="1">
          <mxGeometry relative="1" as="geometry" />
        </mxCell>
        <mxCell id="EvJwnLXetme0oPZWd-gJ-131" value="Взять книгу" style="ellipse;whiteSpace=wrap;html=1;" parent="1" vertex="1">
          <mxGeometry x="450" y="900" width="140" height="70" as="geometry" />
        </mxCell>
        <mxCell id="EvJwnLXetme0oPZWd-gJ-133" value="Зарегистрироваться в системе" style="ellipse;whiteSpace=wrap;html=1;" parent="1" vertex="1">
          <mxGeometry x="120" y="900" width="140" height="70" as="geometry" />
        </mxCell>
        <mxCell id="EvJwnLXetme0oPZWd-gJ-136" value="&quot;include&quot;" style="text;html=1;align=center;verticalAlign=middle;whiteSpace=wrap;rounded=0;" parent="1" vertex="1">
          <mxGeometry x="320" y="910" width="60" height="30" as="geometry" />
        </mxCell>
      </root>
    </mxGraphModel>
  </diagram>
</mxfile>
